<?xml version="1.0" encoding="UTF-8"?>
<svg version="1.1" viewBox="0 0 2048 2048" width="1280" height="1280" xmlns="http://www.w3.org/2000/svg">
<path transform="translate(144,256)" d="m0 0h1348l21 2 20 5 15 6 17 9 10 7 10 8 10 9 10 11 12 18 9 17 8 24 3 15 1 8v30l-4 22-7 21-8 17-12 18-9 10-7 8-13 11-15 10-16 8-19 7-18 4-19 2h-1345l-19-2-21-5-15-6-16-8-17-12-12-11-10-10-12-16-9-16-8-20-7-28v-40l7-27 8-20 9-16 12-16 6-7h2l2-4 8-7 13-10 15-9 15-7 15-5 20-4z" fill="#6BCAF2"/>
<path transform="translate(152,870)" d="m0 0h1332l19 1 22 4 15 5 16 7 16 10 13 10 7 6v2h2v2h2l9 11 10 14 9 16 8 21 4 16 2 14v30l-4 22-8 24-11 21-11 15-9 10-9 9-13 10-15 9-17 8-20 6-16 3-8 1h-1358l-20-3-20-6-23-11-16-11-11-10-6-5-7-8-8-10-10-16-7-15-7-21-4-18v-40l8-30 8-19 13-21 11-13 13-13 13-10 13-8 19-9 19-6 18-3z" fill="#65A4EF"/>
<path transform="translate(139,1485)" d="m0 0h745l20 3 15 4 17 7 15 8 14 10 14 12 11 12 11 16 7 12 8 19 5 19 2 12 1 11v14l-2 21-5 20-8 20-10 18-9 12-11 12-8 8-16 12-22 12-17 6-22 5-26 2h-712l-20-1-18-3-17-5-18-8-14-8-12-9-12-11-9-9-11-15-9-15-8-19-6-22-2-9v-40l6-24 7-19 9-17 10-14 9-11 10-10 17-13 19-11 21-8 22-5z" fill="#566BE8"/>
<path transform="translate(144,256)" d="m0 0h446v1l-300 1-12 1 16 3 10 1 25 1 16 1 30 2 20 2 12 4 2 2 3 7 2 5h9l1 2 6 1 3 3v3l4-1 2 1 1 5-1 2 5 5 3 2 1 3h3l2-5 3-1 1 4v3l5-2 2-1 2 1 1 5 7 2 5 2 1-2 10 4 4 4v3l-8 2 2 2 2-1 5 3 15 1 1 3 7 2 9 3 1 4 5-2 5 1 2 3 6 1 2 2 7 1 5 3h5l9 4 1 2 9 3v2h9l5 2 5 3v4h4v-2l5 1 1 7h8l5 6 3 1 3-1 3 2 2 4 7 3 6 2 1 2 7 1 2 5 5 1 4 4 6-1 1 3 6 1h5l12 13 5 1 3 1 7 1 5 5v2l8 2 1 1h4l1 3h2l1 6h2l2 3 10 3 7 2v2l5 3 1 3 3 2 6 1 8 3 3 4 7 2 3 1 5 1 6 4 11 4 10 2 26 6 5 1v2h8l2 2 11 1 9 1 4-1 4 4 16 2 6-3 4 2 4 3 1-2h9l6 2 13 2 5 1 7 2 6 2 5 2 24 6 2 2-4 4 11 1 3 2 14 1 14 2 11 3h8l3 2 14 3v1l15 1-3 2-43 3-54 1-21 1h-13l-30 1-8 1h-23l-17 1-58 1-30 2-561 1h-84l-19-2-21-5-15-6-16-8-17-12-12-11-10-10-12-16-9-16-8-20-7-28v-40l7-27 8-20 9-16 12-16 6-7h2l2-4 8-7 13-10 15-9 15-7 15-5 20-4z" fill="#65A4EF"/>
<path transform="translate(122,873)" d="m0 0h7l-2 2-8 2h-5l3 6 10 1 4 5-5 5-8 6-4 4-1 6h-2l-2 7-3 7-1 5 3-1 1 3 5 2 2 1-1 2 3-1 1-2 11 1 5 3 13 4 4 2 15 2 6 3h15l5 3 20 4 13 3 7 3 3 3 7 2 8 8 9 4 2 1 2 5 4 2 4 3 2 4 10 3 1 7h6l3 2 8 1v2l3 1 3 4h6l2 1 3 6 4-1 3-1 3 5 1 2h5l2 7 1 3 3 1v2h2v-2h4l2 6h5l1 2 18 6 5 3 14 3 3 2 2 7 10 2 13 3 8 6 1 3v3l1 2 10 3 9 1 4 4 9 3 12 3 3 2v2l4-1 6 3v2l12 2 7 2 10 1 6 4 12 1 4 3 19 5 12 2 6 2 9 2 2 2h7l4 3 12 4 3-1 13 3 3 2 7 2h9l13 3 8 2v2h8l2 2h6l7 3 12 2 7 1 12 1 10 2v3l-2 1h11l2 2-10 1-35 1-8 1-34 1h-10l-12 1h-7l-3 1h-9l-9 1-338 1h-126l-20-3-20-6-23-11-16-11-11-10-6-5-7-8-8-10-10-16-7-15-7-21-4-18v-40l8-30 8-19 13-21 11-13 13-13 13-10 13-8 19-9 19-6z" fill="#566BE8"/>
<path transform="translate(290,257)" d="m0 0h143v1l-41 1-10 1 43 2 31 1h13l17 1h16l34 1 20 1 35 3 18 2 12 1 2 2 8 1h10l3 8 8 4 8 1 5 3 3 1v2l7 1 7 3 1-4 2 5v5l10 2 5-1 5 2 1-1h5 2 3l1-2 4 3 5-1 7 7 3-3h2v2h2v2l7 2v2l11 2 3 5 3 1 10 1 5 1 6 2v2h2l2 3 5 1 3 2h10l5 3 5 2 4 3h7l6 4h2v2l6-2 10 3 2 2 7 2 1 5h4v-2h6l1 3h13l4 6 2 2 8 2 7 1 1 3 8 1v2h6l3 2v2h6l3 4 9 2 2 3h6l1 6 7 2 10 5 5 3 2 3 9 1 1 4h7l4 4 4-1 4 3v3l5-1 1 3h2l1 3-1 2 6-1 5 1 2 4 4 1 5 3h2l2 3 4 2 4 4 3 1 2 5h6l4 3 6 2 1 3 7 1 1 3-1 4 5 2 2 1 7-1 1 5 7 2 2 2 10 1 5 4 9 3 10 2v2l12 2 11 3 4 2h13l7 2 4 1v-2h9l14 3 11 3 16 2 2 1 10 1 6 2 8 1 2 1 9 1 3 2h6l7 1 4 2 6 2 7 1h3l10 2 11 1 9 2 16 3 3 2 12 1 4 1h8l8 1 9 1 10 1 14 1h3 2l1 3 11 1 23-2 26-1h19l5 2 1 5-1 1h-68l-11-1-4-1h-74l-18 2-31 2-22 1-50 1-68 2-20 1h-18l-20 1-45 1h-16l-8 1-1 1h-247v-1l30-2 58-1 19-1h25l7-1 37-1h11l21-1 46-1 43-3-17-1v-2l-11-3-2-1h-7l-11-3-24-3-5-1-13-3 1-3 2-1-9-3-7-1-3-2-7-2-9-2-2-2-9-1-7-2-10-2-6-1h-7-4l-3-3-6 2-5 1-13-2-4-4-10 1-5-1-9-1-4-2-6-1-1-2-9-1-14-3-7-2-10-2-13-5-6-4h-5l-2-2-7-2-4-4-9-3-4-1-3-2-2-4-4-2-2-2-15-5-1-3h-2l-2-4 1-2h-2l-2-3h-2l-2 2-3-3-5-2-3-5-4-2h-7l-2-2-5-1-11-12h-8l-4-2-1-2-6 1v-2l-3-1v-2l-5-1-2-4-7-1-1-3-10-2-5-4v-3l-4-1-5 1-3-5-4-2h-6l-1-5-1-3-4-1v2h-4l-2-5-7-2-1-1h-7l-2-1v-2l-9-2-4-4-6-2h-6l-4-3-7-1-5-3-4-1-3-3-8 1-1-4-9-2-7-2-1-3-15-1-6-3h-3v-3l8-1-1-3-4-4-9-3-5 1-8-4-1-5-4 1-5 2-2-4h2l-1-4-4 4v3l-6-1v-3l-6-4-2-4 1-3v-3h-6v-3l-3-1v-2h-7v-3l-6 1-4-1-4-8-2-5-12-4-30-3h-8l-12-1-19-1-22-1-22-3-6-2v-1z" fill="#68BFF1"/>
<path transform="translate(1031,256)" d="m0 0h461l21 2 20 5 15 6 17 9 10 7 10 8 10 9 10 11 12 18 9 17 8 24 3 15 1 8v30l-4 22-7 21-2 2-1-5-1-2 2-5-1-5-2-5-3 2-3-2-3 9-3-3-6 12-5-2-9 4-1-12 1-2-3 1-2 10 2 4-3 3-3-1-2-9h2l1-5h-5l-5 3-4 4-7 3-1-4h2v-5l3-1 1-3 2-1v-3l-6 3h-2v2l-9 2-7 4-2 4 1 5-7 4-11-2-16 2-7-1-7-3-1-7 1-4-1-4h-3l-2-5-1-3 2-1 2-4h2l-2-6-5-4-7-2-10-5-3-5-8-3-4-8v-2l-5-1-4-3-4 2-5 5v5l-7 10 3 6-4 6-12 4-1 4-1-5-6 1h-2l-5-2-2-1-1 3h-4l-3-5h-5l-7-2-3 1-1 2-9-3-6-3h-3l-4-7-10-1-10-4-2-2h-4l-3-1 1-3-5-1-7-3-2-1-1 2-2-2-2-6-9 1-1-5-8-2-5-2-5-1-2-2v-7h-9l-4-4-8-2-3 1-1-6-7-2-4-1-3-4h-12l-5-3-5-2-3-7 2-6h2l-4-3-7 2-4-6-6-3-1-4 4-1 4 6h3l-1-9h-6l-1 2-10-4-1-1h-9l-5-5-12-3-5-2-6 2-1-7-2-1-7 2-2-4-5 1-6-3-2 4-4-1v-2l-9-1-4 4-18-4-2-3v-5l4-2 2 5 9 1 3 2 1-7-4 1-4-1-2-4-5-1v2h-2l-1-4-3-1-1 8-4-1 2-5 1-3-10-1-3-5-2-2h-2v5 3l-5-2v-6l-6-2-10 1-12-1-1-2 4-2-9-1h-17l-4-2-16-2-9-1-41-2-11-1h-9l-11-1-74-2-35-2-20-1v-1l29-1 221-1z" fill="#6DDBF3"/>
<path transform="translate(1882,256)" d="m0 0h25l21 3 17 5 15 6 15 8 14 10 11 10 12 12 11 15 8 14 6 13 7 21 4 19v36l-7 28-8 20-8 15-10 14-9 10-4 5-8 7-15 11-16 9-19 8-19 5-20 3h-22l-21-3-15-4-20-8-16-9-12-9-10-9-14-14-12-17-10-19-7-20-4-18-2-25 2-22 6-25 8-19 8-15 12-16 9-10 13-12 13-9 14-8 13-6 18-6 16-3z" fill="#6DDBF3"/>
<path transform="translate(122,873)" d="m0 0h7l-2 2-8 2h-5l3 6 10 1 4 5-5 5-8 6-4 4-1 6h-2l-2 7-3 7-1 5 3-1 1 3 5 2 2 1-1 2 3-1 1-2 11 1 5 3 13 4 4 2 15 2 6 3h15l5 3 20 4 13 3 7 3 3 3 7 2 8 8 9 4 2 1 2 5 4 2 4 3 2 4 10 3 1 7h6l3 2 8 1v2l3 1 3 4h6l2 1 3 6 4-1 3-1 3 5 1 2h5l2 7 1 3 3 1v2h2v-2h4l2 6h5l1 2 18 6 5 3 14 3 3 2 2 7 10 2 13 3 8 6 1 3v3l1 2 10 3 9 1 4 4 9 3 12 3 3 2v2l4-1 6 3v2l12 2 7 2 10 1 6 4 12 1 4 3 19 5 12 2 6 2 9 2 2 2h7l4 3 12 4 3-1 13 3 3 2 7 2h9l13 3 8 2v2h8l2 2h6l7 3 12 2 7 1 12 1 10 2v3l-2 1h11l2 2-10 1-35 1-8 1-34 1h-10l-12 1h-7l-3 1h-9l-9 1h-145v-1l31-1 13-1 11-1 28-1h18l23-2h14l4-2h19v-3l-7-2h-9l-10-3-8 1-11-3-8-2h-6l-4-2-7 1-6-2v-2l-3-1h-10l-2-1v2l-5-1v-2l-8 1-11-2-3-2h-3-6l-10-4-12-2-5-5-2 1h-9l-4-4h-6l-6-4-14-1-9-2-9-4-9-2-9-3h-28l-7-3h-7l-7-2-8-1-5-3-6 1-2-1v-2h-3l1-3 1-1h-8l-3-2-5-1-3-4h-7l-7-3-12-3-1-5 1-4-9-4v-2l-5-2-5-3-3-5v-2l-4-1-5-4-19-5-11-4-2-6 1-1-3-1v6l-3 1-5-2v-4h3l-6-3-5-3-4-6-5-3v-2l-5-2-7-2h-27l-2 2-4-1 3-8 3-1-7 1-6 3h-7l-9-3-4-4-2-9-4-13-15-7-4-2h2l-1-5-5 3-5 1-10-4-3-7-8-4-4-4-3-2v-3h-2l2-7 4-5-3 2-3 6-1 6-3-1 3-10 2-6 5-5 2-5-6 2-2-1v2l-6 5-3 5v4h-2v2l-7 6-5 8h-2l-1 4h-2v3l-3 1-2 8h-1l-2 6-4 2 2-9 8-19 13-21 11-13 13-13 13-10 13-8 19-9 19-6z" fill="#5D87EC"/>
<path transform="translate(1516,874)" d="m0 0 9 1 15 5 16 7 16 10 13 10 7 6v2h2v2h2l9 11 10 14 9 16 4 10-1 2-7-6-5-10-8-9v-2l-4-2-20-20-8-6-5-5-7-6-13-8v-2l-4-1-8-5-18-7-5-5z" fill="#69C0F2"/>
<path transform="translate(1405,870)" d="m0 0h79l19 1 7 1-2 1 2 2h2v2l-10 1-3-1-19-1-5-1-23-1h-25l-15 2h-96l-11-1-2 1h-15l-29-1-21-1-28-1 4-2z" fill="#69C1F2"/>
<path transform="translate(1578,902)" d="m0 0 8 6 6 5v2h2v2h2l9 11 3 5-2 1-7-5-7-8-2-4-3-1-7-8-4-4z" fill="#6BCBF2"/>
<path transform="translate(1608,497)" d="m0 0 2 2-9 11-12 13-13 10v-3h2l2-4 14-14 7-6 5-7h2z" fill="#6DDBF3"/>
<path transform="translate(1878,559)" d="m0 0h13l24 1-1 2-9 1h-22l-6-1z" fill="#6BCCF2"/>
<path transform="translate(945,1504)" d="m0 0 11 6 14 11-4 2-7-4-6-7-6-3z" fill="#5E8DEC"/>
<path transform="translate(501,327)" d="m0 0 4 2h6l1 2-3 3-3-2h-5l-1 3-4-2v-5z" fill="#65A4EF"/>
<path transform="translate(67,960)" d="m0 0 5 1 8 4v2l-7 1h-5z" fill="#566BE8"/>
<path transform="translate(231,258)" d="m0 0h34l-1 2-11 1-22-2z" fill="#69C0F2"/>
<path transform="translate(970,1522)" d="m0 0 8 6 4 5-3 1-4-2-1-4-2-1-3-4z" fill="#5F93ED"/>
<path transform="translate(122,873)" d="m0 0h7l-2 2-8 2h-5v-2z" fill="#5E8CEC"/>
<path transform="translate(8,973)" d="m0 0h3v6l-5 3z" fill="#5F90EC"/>
</svg>
