<?xml version="1.0" encoding="UTF-8"?>
<svg version="1.1" viewBox="0 0 2000 2000" width="1280" height="1280" xmlns="http://www.w3.org/2000/svg">
<path transform="translate(953,385)" d="m0 0h56l23 3 23 5 27 8 15 6 23 12 15 10 16 13 19 19 7 9v2l13-5 19-9 16-6 22-5 22-3h30l20 2 25 6 15 5 21 10 16 10 11 8 14 12 11 11 11 14 9 14 9 17 8 21 6 25 3 25 1 18 20 11 21 14 10 8 12 11 17 17 13 18 9 15 10 21 8 26 4 24 1 11v34l-2 18v10l11 18 9 16 13 27 15 41 14 43 15 50 16 49 11 27 6 3 30 9 16 7 13 7 9 7 6 7-1 15v47l3 53 5 74 2 35 1 50-1 32-4 34-6 25-5 15-8 15-9 11-12 9-14 5-7 1-19 1h-91l-1339-1-26-2-16-3-12-5-5-4-7-10-5-12-4-17-3-26-1-15v-148l-2-59v-66l3-22 5-21 6-14 8-12 9-9 16-9 7-2 13-33 19-56 16-50 14-40 14-34 12-25 8-14 7-11 5-7 1-6-4-26-1-16v-23l3-22 5-21 6-17 9-20 14-23 13-16 17-17 16-12 17-10 16-7 11-4v-21l1-18 4-22 6-20 8-18 10-18 10-14 10-12h2l2-4 12-11 16-12 13-8 22-11 21-7 20-5 20-2h23l25 3 21 5 16 6 20 10 13 9 3 1 2-5 9-12 11-12 13-12 20-14 16-9 14-7 25-9 17-5 25-5zm6 68-22 3-25 6-19 7-22 12-12 8-14 12-12 12-10 14-8 19-12 33-10 22-7 10-8 9-5 3-8 2h-7l-12-5-5-5-4-8-1-5v-13l3-20 9-38-1-4-15-8-24-8-17-3h-26l-16 2-16 5-25 12-14 10-10 9-11 11-10 15-8 15-6 17-3 14-1 15 6 2 25 5 20 6 16 6 20 10 13 9 12 11 8 11 5 10 2 8v12l-3 11-5 10-5 5-7 2-13-2-13-7-12-9-16-13-11-8-16-8-21-5h-23l-16 3-19 7-11 6-14 12-12 12-10 14-10 18-8 21-5 23-1 22 2 24 3 15 2 3h1108l3-9 2-16v-27l-3-23-7-25-8-18-8-13-10-13-12-12-15-11-16-8-8-3-13-3-7-1h-23l-16 3-16 7-11 8-15 14-7 7-9 7-10 4-10 1-9-4-9-6-5-7-2-7v-9l3-10 7-12 12-14 12-11 15-11 18-11 15-7 16-5 9-1h16l-1-16-3-18-7-19-8-15-9-12-9-10-11-9-13-8-15-8-24-8-17-2h-25l-21 4-20 7-15 8-1 1 1 11 9 38 2 12v15l-4 10-8 7-6 2-13 2-10-3-6-4-6-8-7-16-9-31-6-15-8-14-9-12-12-13-11-11-14-10-23-13-15-7-25-8-21-5-16-2zm-87 517m265 0m-719 1-7 14-10 23-13 34-10 29-18 53-13 35v1l39 4 16 4 16 8 6 5 6 10 1 4v12l-4 10-8 11-8 8-10 7-14 7-11 4-18 4-20 2-27-3-12-3h-3v266h539l-1-3-15-5-27-12-16-8-22-12-27-18-13-10-11-9-10-9-22-22-8-10-11-14-12-19-12-23-8-19-6-19-5-25-1-10v-42l2-19 6-25 9-25 14-28 14-22 7-9 9-11 6-8 7-6v-2l4-2 9-9 22-18 19-14 19-12 24-13 27-13 19-8 33-11 13-4v-1zm722 0 2 2 25 7 32 12 34 16 24 13 24 16 12 9 17 14 10 9 12 11 7 7 9 11 14 19 9 15 7 12 10 22 10 30 4 20 2 29v15l-2 26-5 24-9 26-12 25-10 17-8 12-9 11-8 10-11 12-16 16-10 8-14 11-17 12-25 15-22 12-29 13-16 6-6 2 2 2h520l1-6v-197l2-35 2-24h-19l-32 1h-32l-19-2-16-3-16-6-10-6-8-9-5-11-1-5v-14l3-15 5-10 4-5 11-7 11-4 15-3 20-2-3-11-16-47-14-40-13-42-12-45-1-1zm-465 241 1 3v60l-1 5h16l-1-5v-41l11 29 6 15 3 2 2-1 16-40 3-8v34l-1 15h15l-1-28 1-37 1-3h-21l-2 10-12 29-1 1-13-33-1-7zm82 0 1 4 10 17 10 18 1 13-1 12-1 4h17l1-2-2-5v-18l4-10 16-28 2-5h-18l1 6-9 16-3 3-11-20 1-4-1-1zm122 0-10 4-8 7-5 10-2 7v13l3 10 6 9 8 6 11 3h7l10-3 12-7-2-4-6-9-3 3-4 5-9 3-10-2-6-7-3-8v-12l4-10 6-5 3-1h10l8 5 2 3h2l4-9 1-4-5-3-10-4zm63 0-10 4-7 7-5 11-1 4v17l4 11 6 8 12 6 10 1 10-2 8-5 7-8 3-7 1-5v-16l-4-11-6-8-9-6-4-1zm50 0 1 44 2 10 3 6 7 6 12 3h8l9-2 6-4 5-6 2-6 1-37 1-11 1-3h-17l1 3v45l-3 6-4 2h-12l-5-3-2-5v-44l1-3-1-1zm71 0 1 3v61l-1 4h17l1-2-2-4v-21l19-1 9-3 6-5 3-8v-7l-3-8-5-5-6-3-10-1zm84 0-10 5-8 9-3 7-1 5v17l4 11 9 10 9 4 9 1 11-2 8-5 7-8 4-10v-19l-5-12-7-8-7-4-4-1zm52 0v68h14l1-3-1-2v-16l1-24 9 17 12 19 3 9h15l1-3-1-4v-29l1-29v-3h-15l1 33v7h-2l-12-22-6-10-3-8zm86 0-10 5-4 5-2 8 1 8 5 6 10 5 20 5 3 1 1 8-3 4-3 1h-17l-7-3-6-4-5 12v2l9 3 13 3h8l12-3 8-6 4-6 1-3v-7l-3-8-8-6-17-5-9-3-2-1v-7l1-2 3-1h10l8 3 3 6 3-1 6-10 1-4-13-4-5-1z" fill="#FB9350"/>
<path transform="translate(1150,1223)" d="m0 0h10l6 3 5 6 2 7v15l-4 10-5 4-2 1h-13l-5-3-4-5-2-5v-18l4-9 6-5z" fill="#FB9350"/>
<path transform="translate(945,1223)" d="m0 0h9l6 3 4 4 3 9v16l-4 9-5 4-9 2-8-2-5-4-4-9-1-9 2-11 4-7 5-4z" fill="#FB9350"/>
<path transform="translate(1079,1224)" d="m0 0h18l5 3v11l-2 2-6 1h-15l-1-2v-13z" fill="#FB9350"/>
</svg>
